<?xml version="1.0" encoding="UTF-8" ?>
<!DOCTYPE svg PUBLIC "-//W3C//DTD SVG 1.1//EN" "http://www.w3.org/Graphics/SVG/1.1/DTD/svg11.dtd">
<svg width="500pt" height="500pt" viewBox="0 0 500 500" version="1.1" xmlns="http://www.w3.org/2000/svg">
<g id="#000000ff">
</g>
<g id="#ecececff">
<path fill="#ececec" opacity="1.00" d=" M 161.49 49.58 C 161.95 50.02 162.89 50.90 163.35 51.34 C 177.62 87.98 191.17 124.89 205.50 161.50 C 209.55 172.39 214.45 183.01 217.29 194.30 C 216.78 194.17 215.75 193.91 215.24 193.78 C 207.10 171.73 198.47 149.87 190.17 127.88 C 184.18 111.02 178.65 93.98 171.29 77.65 C 167.64 68.45 162.65 59.53 161.49 49.58 Z" />
<path fill="#ececec" opacity="1.00" d=" M 342.59 53.58 C 343.12 52.31 344.11 51.34 345.15 50.48 C 345.03 52.03 344.71 53.57 344.03 54.98 C 337.01 71.24 328.38 86.72 320.86 102.74 C 313.83 116.90 306.90 131.13 300.81 145.72 C 294.66 160.57 288.27 175.32 282.05 190.14 C 281.58 191.25 280.77 192.06 279.63 192.57 C 279.17 189.78 280.87 187.43 281.79 184.95 C 287.39 171.23 293.06 157.53 298.80 143.85 C 305.26 128.69 312.75 114.00 320.13 99.26 C 327.53 83.99 335.17 68.84 342.59 53.58 Z" />
<path fill="#ececec" opacity="1.00" d=" M 250.26 83.94 C 250.32 82.32 250.56 80.64 251.79 79.47 C 252.39 86.95 251.55 94.49 252.43 101.95 C 252.48 109.95 252.71 117.97 252.01 125.95 C 252.15 140.97 251.58 156.01 252.49 170.99 C 252.76 176.68 251.94 182.33 252.14 188.02 C 251.61 188.09 250.54 188.25 250.01 188.33 C 250.07 153.54 249.79 118.73 250.26 83.94 Z" />
<path fill="#ececec" opacity="1.00" d=" M 220.09 113.58 C 222.15 116.11 222.52 119.44 223.20 122.52 C 222.56 122.37 221.92 122.19 221.30 121.99 C 220.25 119.32 219.79 116.44 220.09 113.58 Z" />
<path fill="#ececec" opacity="1.00" d=" M 279.45 115.53 C 282.13 117.16 279.88 120.50 279.77 122.88 C 279.32 123.18 278.40 123.76 277.94 124.05 C 278.00 121.15 278.55 118.29 279.45 115.53 Z" />
<path fill="#ececec" opacity="1.00" d=" M 221.95 129.00 C 222.39 128.64 223.26 127.93 223.70 127.58 C 228.12 147.70 231.20 168.12 235.62 188.26 C 235.32 188.72 234.73 189.65 234.43 190.12 C 231.83 182.95 230.89 175.36 229.84 167.86 C 227.67 154.82 224.46 141.97 221.95 129.00 Z" />
<path fill="#ececec" opacity="1.00" d=" M 275.92 133.00 C 275.87 131.46 276.80 130.36 277.91 129.42 C 278.73 134.66 276.59 139.71 275.70 144.79 C 272.30 159.45 270.18 174.37 266.74 189.01 L 265.93 188.98 C 265.80 184.96 266.66 181.03 267.44 177.12 C 270.41 162.44 273.60 147.80 275.92 133.00 Z" />
<path fill="#ececec" opacity="1.00" d=" M 115.02 132.31 C 115.37 132.25 116.08 132.13 116.43 132.07 C 126.54 141.15 135.74 151.15 145.07 161.00 C 157.18 173.84 170.14 185.84 182.28 198.66 C 185.81 202.38 189.85 205.76 192.49 210.22 C 189.88 210.91 188.63 208.50 187.10 206.96 C 177.11 195.98 166.29 185.78 156.11 174.98 C 143.55 162.19 131.39 149.02 118.58 136.48 C 117.27 135.20 116.02 133.85 115.02 132.31 Z" />
<path fill="#ececec" opacity="1.00" d=" M 384.68 136.68 C 385.81 135.58 387.12 134.21 388.93 134.83 C 372.72 153.00 352.86 167.46 336.40 185.39 C 331.76 190.43 327.21 195.58 322.08 200.15 C 318.26 203.62 314.96 207.66 310.98 210.93 L 309.68 211.15 L 309.57 209.94 C 312.97 205.01 317.69 201.12 321.78 196.75 C 341.76 175.70 364.05 157.06 384.68 136.68 Z" />
<path fill="#ececec" opacity="1.00" d=" M 160.81 136.63 C 163.97 138.28 166.69 141.59 166.90 145.24 C 163.93 143.23 161.66 140.12 160.81 136.63 Z" />
<path fill="#ececec" opacity="1.00" d=" M 331.08 147.44 C 332.00 144.40 333.89 141.77 336.24 139.67 C 335.76 142.89 333.54 145.47 331.08 147.44 Z" />
<path fill="#ececec" opacity="1.00" d=" M 169.42 148.57 C 170.62 148.96 171.57 149.66 172.28 150.67 C 182.94 165.83 193.04 181.37 203.01 196.98 C 203.74 198.19 204.12 199.52 204.15 200.96 C 198.50 195.69 195.34 188.42 191.15 182.04 C 184.91 172.28 178.27 162.80 171.68 153.28 C 170.63 151.87 169.92 150.24 169.42 148.57 Z" />
<path fill="#ececec" opacity="1.00" d=" M 323.06 157.97 C 324.64 155.70 325.60 152.70 328.32 151.51 C 328.08 153.07 327.82 154.68 326.89 156.01 C 323.51 161.77 319.50 167.11 315.67 172.56 C 310.62 179.88 305.86 187.40 301.22 194.99 C 299.89 197.14 298.41 199.38 296.01 200.44 C 297.38 196.63 299.90 193.42 302.07 190.04 C 308.94 179.27 316.40 168.87 323.06 157.97 Z" />
<path fill="#ececec" opacity="1.00" d=" M 31.26 170.75 C 31.92 170.86 33.24 171.08 33.89 171.18 C 72.27 189.92 110.07 209.81 148.38 228.69 C 155.43 232.29 162.79 235.34 169.59 239.41 L 169.72 240.41 L 168.68 240.57 C 160.16 236.91 151.80 232.91 143.60 228.57 C 124.85 218.80 105.50 210.17 87.00 199.91 C 70.09 190.46 52.72 181.89 35.10 173.87 C 33.53 173.24 32.29 172.07 31.26 170.75 Z" />
<path fill="#ececec" opacity="1.00" d=" M 459.13 177.12 C 462.89 175.47 466.53 173.52 470.46 172.28 C 468.79 174.85 465.82 175.82 463.27 177.22 C 451.95 183.29 440.09 188.22 428.38 193.45 C 396.38 207.93 364.89 223.51 332.81 237.82 C 332.04 237.87 330.49 237.98 329.71 238.03 C 330.99 237.19 332.29 236.38 333.68 235.73 C 375.52 216.23 417.04 196.07 459.13 177.12 Z" />
<path fill="#ececec" opacity="1.00" d=" M 117.79 178.46 C 120.77 179.01 123.14 181.00 125.03 183.28 C 121.98 182.91 119.46 180.95 117.79 178.46 Z" />
<path fill="#ececec" opacity="1.00" d=" M 372.11 186.37 C 374.42 184.59 376.83 182.90 379.60 181.93 C 378.09 184.59 375.65 186.49 373.10 188.09 C 372.85 187.66 372.36 186.80 372.11 186.37 Z" />
<path fill="#ececec" opacity="1.00" d=" M 131.48 187.31 C 135.09 187.56 137.61 190.51 140.52 192.33 C 151.12 200.53 162.11 208.18 173.13 215.80 C 175.65 217.85 178.91 219.44 180.08 222.68 C 177.53 221.89 175.44 220.22 173.28 218.74 C 161.35 210.38 150.22 200.90 137.88 193.14 C 135.58 191.41 132.61 190.16 131.48 187.31 Z" />
<path fill="#ececec" opacity="1.00" d=" M 347.40 205.26 C 354.31 200.18 360.53 193.85 368.43 190.32 C 367.66 192.76 365.44 194.17 363.56 195.68 C 352.72 203.50 341.85 211.29 330.98 219.07 C 327.94 221.24 325.09 223.73 321.72 225.40 C 321.83 224.11 322.37 223.08 323.33 222.29 C 330.95 216.05 339.49 211.10 347.40 205.26 Z" />
<path fill="#ececec" opacity="1.00" d=" M 92.29 235.55 C 95.66 236.27 100.44 235.59 102.42 238.96 C 98.84 238.95 94.91 238.18 92.29 235.55 Z" />
<path fill="#ececec" opacity="1.00" d=" M 398.24 239.19 C 400.15 238.78 402.05 238.34 403.96 237.91 C 403.66 238.38 403.05 239.33 402.74 239.80 C 400.67 240.29 398.57 240.76 396.48 241.16 C 396.92 240.66 397.80 239.68 398.24 239.19 Z" />
<path fill="#ececec" opacity="1.00" d=" M 106.66 240.44 C 107.17 240.16 108.18 239.61 108.68 239.34 C 119.26 241.26 129.43 244.96 139.97 247.05 C 146.23 248.33 152.35 250.25 158.61 251.53 C 160.55 252.02 162.99 251.85 163.91 254.06 C 155.16 253.77 146.93 250.40 138.50 248.42 C 127.93 245.61 116.99 244.05 106.66 240.44 Z" />
<path fill="#ececec" opacity="1.00" d=" M 381.45 243.56 C 384.40 242.97 387.35 242.03 390.40 242.20 C 385.09 244.22 379.50 245.38 374.02 246.82 C 361.68 249.80 349.32 252.77 336.76 254.66 C 337.77 254.12 338.79 253.53 339.93 253.26 C 353.64 249.50 367.54 246.50 381.45 243.56 Z" />
<path fill="#ececec" opacity="1.00" d=" M 9.38 268.72 C 17.21 267.75 25.12 268.47 32.98 268.02 C 54.64 268.04 76.32 267.66 97.94 268.98 C 104.63 269.00 111.32 269.04 118.01 268.95 C 132.38 267.66 146.85 267.82 161.25 268.23 C 160.94 268.64 160.32 269.45 160.01 269.85 C 139.70 270.44 119.33 269.38 99.03 270.49 C 72.02 270.46 45.00 270.48 17.99 270.48 C 14.55 270.45 11.08 270.71 7.69 270.01 C 8.11 269.69 8.95 269.04 9.38 268.72 Z" />
<path fill="#ececec" opacity="1.00" d=" M 414.02 268.56 C 431.00 268.37 448.00 268.86 464.97 268.18 C 472.67 267.78 480.41 268.38 488.09 267.54 C 489.60 267.29 491.13 267.54 492.30 268.60 C 483.33 270.23 474.11 269.79 465.02 270.02 C 445.07 271.65 425.01 271.00 405.02 270.47 C 395.66 270.22 386.33 270.99 376.97 270.81 C 365.66 270.17 354.32 270.58 343.00 270.49 C 341.09 270.60 339.26 270.07 337.48 269.48 C 344.51 267.73 351.83 268.85 359.00 268.52 C 370.00 269.31 381.05 268.90 392.07 269.00 C 399.39 268.91 406.73 269.28 414.02 268.56 Z" />
<path fill="#ececec" opacity="1.00" d=" M 53.50 302.58 C 59.51 299.71 66.26 298.01 72.90 299.33 C 76.92 300.27 80.83 302.43 83.06 306.01 C 85.70 310.59 84.34 316.98 80.02 320.05 C 74.31 324.53 66.86 325.33 59.88 326.00 C 57.68 333.71 55.49 341.41 53.30 349.12 C 51.53 348.92 49.36 348.89 48.40 347.08 C 48.05 345.01 48.97 343.06 49.53 341.13 C 54.11 327.61 58.32 313.91 64.50 301.02 C 61.58 302.02 58.81 303.40 55.91 304.45 C 55.06 303.88 54.26 303.25 53.50 302.58 M 68.82 300.69 C 65.21 308.18 62.63 316.11 60.23 324.06 C 65.85 323.33 71.84 322.15 76.00 317.99 C 79.54 314.80 80.66 309.06 78.07 304.96 C 76.00 301.98 72.25 300.94 68.82 300.69 Z" />
<path fill="#ececec" opacity="1.00" d=" M 155.55 306.56 C 157.51 303.65 159.68 300.57 163.01 299.12 C 164.58 298.76 167.39 298.62 167.38 300.89 C 167.47 307.60 162.84 313.12 158.69 317.93 C 156.00 321.32 151.86 323.26 149.54 326.97 C 151.80 329.93 151.31 333.87 152.87 337.12 C 153.83 339.54 157.44 339.84 159.13 338.08 C 163.64 334.21 164.05 327.51 168.49 323.61 C 169.61 322.45 173.36 322.63 172.26 325.00 C 170.16 330.64 165.13 335.68 165.99 342.09 C 166.40 345.47 170.88 344.19 172.53 342.42 C 176.74 339.24 176.48 333.47 179.33 329.41 C 181.86 325.46 186.14 322.03 191.02 322.14 C 195.47 322.39 196.20 328.76 193.38 331.32 C 192.13 332.30 190.65 331.42 189.33 331.17 C 190.82 329.24 192.93 326.13 190.94 323.88 C 186.68 325.18 184.23 329.28 182.46 333.08 C 181.17 336.35 179.74 340.54 182.22 343.62 C 184.11 345.31 186.83 344.58 188.93 343.76 C 193.29 341.76 196.25 337.64 197.99 333.29 C 198.53 333.52 199.07 333.76 199.62 334.01 C 197.16 339.61 192.92 344.89 186.89 346.77 C 184.13 347.19 180.76 347.55 178.59 345.38 C 177.22 344.22 176.88 342.36 176.31 340.76 C 173.52 344.44 168.91 347.09 164.19 345.82 C 161.30 344.62 161.06 341.14 161.54 338.46 C 159.04 341.28 154.63 342.03 151.59 339.63 C 151.44 346.56 149.70 353.79 145.39 359.35 C 143.74 361.61 139.42 361.87 138.40 358.92 C 137.42 353.50 138.68 347.97 140.26 342.78 C 137.56 344.83 134.38 346.65 130.85 346.01 C 127.82 345.94 126.97 342.49 126.49 340.09 C 123.41 344.35 118.33 347.74 112.88 347.01 C 109.28 346.94 107.10 343.37 106.81 340.12 C 104.17 342.89 100.96 345.65 96.96 345.92 C 94.38 345.96 92.23 343.95 91.99 341.40 C 89.62 344.02 86.92 347.54 82.94 347.04 C 80.60 347.33 78.46 345.23 78.39 342.94 C 77.98 338.97 79.94 335.24 82.07 332.03 C 84.89 328.24 88.43 324.61 93.06 323.18 C 95.56 322.88 98.67 322.40 100.61 324.43 C 102.27 325.64 101.72 327.84 101.76 329.60 C 100.96 329.85 99.34 330.34 98.54 330.59 C 98.13 328.76 99.16 325.99 97.03 324.99 C 92.84 324.12 89.86 327.97 87.63 330.91 C 85.17 334.70 82.39 339.37 83.87 344.02 C 85.07 344.05 86.15 343.72 87.11 343.04 C 91.74 339.83 94.10 334.44 98.15 330.69 C 99.12 331.20 100.04 331.80 100.91 332.49 C 99.34 335.31 97.84 338.18 96.57 341.15 C 97.33 342.12 98.07 345.06 99.80 343.56 C 103.54 341.52 106.55 337.99 107.70 333.85 C 109.66 328.07 114.61 322.52 121.02 322.10 C 126.20 321.84 127.33 329.87 122.95 331.82 C 121.94 331.68 120.94 331.49 119.95 331.27 C 120.97 329.25 124.10 325.52 121.16 324.02 C 116.07 325.94 113.37 331.35 111.84 336.25 C 111.26 338.98 110.74 343.24 114.05 344.44 C 117.67 345.23 121.22 343.19 123.70 340.71 C 128.86 335.98 128.83 327.84 134.34 323.39 C 135.17 323.22 136.82 322.89 137.65 322.72 C 138.21 326.31 135.52 329.09 134.10 332.12 C 132.29 335.59 130.26 339.94 132.14 343.76 C 136.77 345.47 140.30 340.57 141.81 336.83 C 145.55 326.40 149.62 315.98 155.55 306.56 M 152.06 321.21 C 157.24 315.93 162.95 310.16 164.43 302.65 C 157.45 306.28 155.62 314.80 152.06 321.21 M 147.73 333.00 C 145.39 341.21 141.74 349.56 142.85 358.26 C 144.46 356.90 145.64 355.12 146.35 353.15 C 148.73 346.77 150.77 339.52 147.73 333.00 Z" />
<path fill="#ececec" opacity="1.00" d=" M 232.31 301.21 C 236.03 298.87 241.17 297.80 245.00 300.45 C 237.49 300.68 231.90 306.46 228.06 312.35 C 223.05 320.21 219.44 329.60 220.77 339.05 C 221.43 342.16 222.75 345.78 226.05 346.89 C 229.63 347.79 233.46 346.58 236.09 344.05 C 241.98 338.50 245.04 330.65 246.85 322.92 C 247.91 317.39 248.86 311.59 247.31 306.05 C 247.29 304.63 245.63 302.94 244.38 304.37 C 240.53 307.87 238.93 313.02 237.29 317.80 C 236.51 317.41 234.95 316.61 234.17 316.21 C 233.28 311.32 236.77 307.24 240.19 304.26 C 242.18 302.48 245.06 301.12 247.67 302.36 C 250.64 304.57 250.63 308.72 251.14 312.04 C 251.68 323.03 248.43 334.66 240.51 342.59 C 236.66 346.30 231.59 349.51 226.03 349.05 C 220.91 349.35 216.64 345.06 215.28 340.41 C 213.20 333.53 214.56 326.04 217.37 319.56 C 220.55 312.26 225.48 305.46 232.31 301.21 Z" />
<path fill="#ececec" opacity="1.00" d=" M 291.39 308.39 C 292.46 306.62 296.45 305.91 295.62 309.00 C 293.36 314.28 290.01 318.99 287.47 324.13 C 291.46 324.21 295.47 323.77 299.45 324.33 C 295.83 327.03 290.89 325.63 286.71 326.00 C 284.55 331.39 282.40 337.34 283.79 343.19 C 286.14 346.28 290.52 343.72 292.66 341.62 C 294.97 339.96 295.11 336.88 296.78 334.81 C 301.36 331.63 305.26 326.83 305.91 321.13 C 305.93 319.07 308.02 318.92 309.58 318.75 C 308.11 326.53 313.81 333.39 312.47 341.20 C 317.25 339.13 318.17 333.81 321.06 330.07 C 322.27 328.29 324.44 328.00 326.42 327.88 C 324.72 331.82 322.00 335.62 322.25 340.10 C 322.07 341.44 323.18 342.34 323.87 343.32 C 326.17 342.03 328.31 340.45 330.31 338.72 C 326.81 334.98 325.04 328.86 328.21 324.39 C 330.05 320.97 336.84 320.70 337.59 325.07 C 338.35 329.84 335.74 334.16 333.49 338.13 C 335.88 338.17 338.54 338.16 340.30 336.26 C 342.50 332.75 342.81 328.17 345.95 325.25 C 346.74 325.47 348.33 325.93 349.12 326.15 C 347.34 331.33 343.76 336.71 345.46 342.33 C 345.83 344.43 348.33 343.49 349.23 342.32 C 353.12 337.81 355.31 332.14 358.01 326.89 C 359.28 327.42 360.54 327.98 361.80 328.56 C 360.12 333.24 357.10 337.78 357.47 342.93 C 357.86 345.16 360.82 343.94 362.04 343.05 C 367.42 339.05 370.25 332.55 372.50 326.44 C 372.50 323.52 372.21 318.70 376.40 318.84 C 376.85 320.49 376.27 322.16 376.04 323.80 C 378.50 325.81 381.86 327.53 382.40 330.99 C 382.69 335.41 378.66 339.02 379.49 343.45 C 383.43 344.09 386.75 340.80 388.82 337.84 C 390.36 333.42 391.81 328.65 395.60 325.57 C 398.38 323.25 402.55 320.90 406.10 322.89 C 410.07 325.14 407.63 334.49 402.58 331.06 C 403.77 328.99 405.84 326.15 404.01 323.86 C 399.69 325.14 397.21 329.30 395.43 333.14 C 394.24 336.21 392.96 339.88 394.74 342.99 C 396.31 345.41 399.63 344.70 401.87 343.79 C 405.31 342.15 408.32 339.28 409.46 335.56 C 412.27 328.37 418.75 320.89 427.24 321.87 C 428.41 323.29 429.82 325.10 429.09 327.06 C 427.39 333.98 419.81 337.15 413.44 338.31 C 413.53 340.69 413.34 343.94 416.06 344.96 C 420.93 346.13 425.26 342.74 428.26 339.30 C 431.27 335.26 433.73 330.74 435.16 325.89 C 435.31 323.51 434.69 320.53 437.06 319.01 C 440.31 318.25 438.60 322.10 438.69 323.81 C 440.62 325.66 443.17 326.99 444.48 329.41 C 445.70 333.50 442.97 337.18 441.88 340.94 C 440.85 342.25 442.35 344.26 443.86 343.55 C 448.72 342.42 451.40 337.81 454.21 334.13 C 455.40 336.10 453.61 337.86 452.56 339.43 C 449.70 342.92 445.82 346.66 440.91 346.04 C 438.63 346.27 436.32 344.17 436.62 341.85 C 437.08 337.64 440.00 334.09 440.26 329.82 C 439.78 328.22 438.38 327.20 437.29 326.03 C 434.20 334.12 430.16 343.13 421.44 346.40 C 417.83 347.39 412.92 347.89 410.32 344.57 C 409.36 343.48 409.19 341.95 408.69 340.66 C 405.44 344.22 401.07 347.65 395.94 347.04 C 392.22 347.32 389.78 343.82 389.24 340.52 C 386.54 343.36 383.16 346.47 378.92 346.05 C 376.94 346.29 374.52 345.10 374.29 342.96 C 373.76 338.30 377.71 334.59 377.59 329.99 C 377.63 328.16 375.88 327.20 374.81 326.00 C 372.32 331.53 370.49 337.60 366.04 341.96 C 363.36 344.93 359.25 346.98 355.22 345.77 C 353.21 345.05 353.31 342.63 352.83 340.96 C 350.70 343.93 347.86 346.84 343.84 346.17 C 341.54 344.28 340.33 341.48 340.50 338.50 C 338.06 340.28 335.04 340.11 332.19 339.94 C 329.27 342.86 325.64 346.58 321.11 345.64 C 318.31 345.08 317.28 342.11 317.20 339.58 C 315.05 340.95 312.32 341.58 310.78 343.76 C 307.09 349.07 297.02 348.22 295.62 341.33 C 292.58 344.54 288.59 347.69 283.88 347.04 C 280.07 347.44 278.49 343.27 278.58 340.14 C 275.88 343.68 271.77 346.92 267.03 345.96 C 264.49 345.78 264.18 342.88 263.83 340.95 C 261.71 343.93 258.87 346.84 254.84 346.17 C 252.50 344.19 250.99 341.17 251.69 338.06 C 252.59 333.56 253.67 328.67 256.94 325.25 C 257.74 325.47 259.33 325.93 260.12 326.15 C 258.36 331.30 254.80 336.64 256.42 342.22 C 256.75 344.46 259.34 343.51 260.28 342.27 C 264.14 337.76 266.32 332.13 269.01 326.90 C 270.28 327.42 271.54 327.98 272.80 328.55 C 271.10 333.42 267.74 338.20 268.60 343.57 C 270.92 345.25 273.57 342.75 275.24 341.21 C 279.72 337.37 280.13 331.20 282.18 326.04 C 281.49 325.71 280.12 325.05 279.44 324.72 C 280.61 324.36 281.79 324.03 282.99 323.73 C 285.28 318.38 287.61 312.88 291.39 308.39 M 332.32 324.31 C 328.94 327.42 329.79 332.66 331.70 336.34 C 333.35 333.44 334.92 330.35 335.09 326.96 C 335.02 325.43 334.31 322.62 332.32 324.31 M 414.06 336.18 C 419.33 334.04 425.75 330.45 425.84 323.97 C 425.17 324.02 423.83 324.11 423.16 324.16 C 418.55 326.59 415.93 331.52 414.06 336.18 M 300.37 334.89 C 302.18 337.61 304.64 339.81 307.67 341.08 C 307.97 336.49 307.23 331.94 306.04 327.52 C 304.27 330.06 302.45 332.59 300.37 334.89 M 298.88 336.66 C 298.70 339.76 299.27 344.41 302.96 345.10 C 305.07 345.75 306.21 343.80 307.50 342.56 C 304.02 341.57 301.45 339.03 298.88 336.66 Z" />
<path fill="#ececec" opacity="1.00" d=" M 136.83 314.12 C 138.17 311.72 141.13 311.99 143.47 311.84 C 144.70 314.75 142.05 317.70 138.99 317.04 C 137.57 317.43 135.38 315.31 136.83 314.12 Z" />
<path fill="#ececec" opacity="1.00" d=" M 173.31 312.40 C 174.70 311.68 176.43 311.87 177.89 312.30 C 180.04 315.84 174.20 318.40 171.44 316.53 C 170.49 314.81 171.59 312.98 173.31 312.40 Z" />
</g>
</svg>
