<?xml version="1.0" encoding="UTF-8" ?>
<!DOCTYPE svg PUBLIC "-//W3C//DTD SVG 1.1//EN" "http://www.w3.org/Graphics/SVG/1.1/DTD/svg11.dtd">
<svg width="500pt" height="500pt" viewBox="0 0 500 500" version="1.1" xmlns="http://www.w3.org/2000/svg">
<g id="#fbfaf9ff">
</g>
<g id="#373636ff">
<path fill="#373636" opacity="1.00" d=" M 161.40 49.80 C 164.13 50.49 164.17 53.85 165.24 55.98 C 180.10 94.48 194.39 133.19 209.51 171.59 C 212.31 178.97 215.49 186.27 217.22 193.99 C 216.69 194.00 215.64 194.01 215.11 194.01 C 205.56 166.83 194.17 140.33 184.89 113.05 C 180.59 100.36 175.78 87.85 170.33 75.60 C 166.93 67.17 162.57 58.92 161.40 49.80 Z" />
<path fill="#373636" opacity="1.00" d=" M 342.54 53.48 C 343.01 52.22 343.93 51.24 345.11 50.60 C 345.07 52.11 344.83 53.61 344.14 54.96 C 336.64 72.11 327.58 88.52 319.61 105.44 C 305.22 133.33 294.10 162.73 281.48 191.40 C 281.03 191.66 280.13 192.17 279.68 192.43 C 279.65 191.84 279.58 190.67 279.55 190.09 C 282.33 183.60 284.91 177.02 287.66 170.52 C 293.05 157.41 298.37 144.27 304.27 131.38 C 316.79 105.30 329.94 79.52 342.54 53.48 Z" />
<path fill="#373636" opacity="1.00" d=" M 250.04 86.02 C 250.33 83.84 249.62 80.86 251.93 79.58 C 251.61 95.05 253.55 110.51 252.01 125.95 C 252.07 138.67 251.85 151.40 252.13 164.11 C 253.28 172.15 252.04 180.23 252.19 188.28 C 251.64 188.23 250.56 188.13 250.02 188.08 C 249.98 154.06 249.98 120.04 250.04 86.02 Z" />
<path fill="#373636" opacity="1.00" d=" M 220.06 113.63 C 222.33 115.97 222.51 119.38 223.23 122.38 C 222.41 122.19 220.72 122.66 220.91 121.14 C 220.02 118.73 219.83 116.17 220.06 113.63 Z" />
<path fill="#373636" opacity="1.00" d=" M 279.24 115.69 C 282.60 116.67 279.82 120.57 279.83 122.91 C 279.36 123.21 278.41 123.80 277.93 124.09 C 277.82 121.23 278.50 118.44 279.24 115.69 Z" />
<path fill="#373636" opacity="1.00" d=" M 221.98 130.00 C 221.79 128.63 222.41 127.87 223.86 127.72 C 228.12 147.82 231.29 168.17 235.71 188.25 C 235.38 188.73 234.71 189.68 234.38 190.16 C 231.74 183.00 230.85 175.41 229.79 167.91 C 227.59 155.19 224.67 142.61 221.98 130.00 Z" />
<path fill="#373636" opacity="1.00" d=" M 276.02 131.99 C 276.18 130.85 276.84 130.05 278.00 129.58 C 278.73 134.81 276.63 139.82 275.75 144.90 C 272.35 159.51 270.23 174.39 266.85 189.00 L 265.98 189.00 C 265.99 186.97 265.85 184.92 266.25 182.91 C 269.51 165.94 273.40 149.08 276.02 131.99 Z" />
<path fill="#373636" opacity="1.00" d=" M 114.80 131.85 C 116.00 131.87 117.00 132.32 117.81 133.19 C 128.32 143.00 138.16 153.48 147.95 164.01 C 161.18 177.45 174.76 190.55 187.79 204.19 C 189.30 206.06 191.69 207.54 192.13 210.04 C 191.62 210.09 190.58 210.18 190.07 210.23 C 181.10 200.47 171.79 191.03 162.38 181.70 C 151.41 169.96 139.96 158.67 128.99 146.93 C 124.33 141.85 118.66 137.60 114.80 131.85 Z" />
<path fill="#373636" opacity="1.00" d=" M 382.65 138.61 C 384.46 137.02 385.95 134.37 388.73 134.62 C 385.21 140.28 379.55 144.27 374.93 149.01 C 365.02 159.11 353.64 167.63 343.86 177.86 C 335.72 185.71 328.66 194.60 320.18 202.11 C 316.57 205.09 314.06 209.70 309.58 211.40 C 309.18 209.18 311.05 207.76 312.34 206.30 C 322.44 195.72 332.85 185.42 343.33 175.22 C 356.55 163.14 369.76 151.05 382.65 138.61 Z" />
<path fill="#373636" opacity="1.00" d=" M 160.83 136.70 C 164.02 138.10 166.89 141.64 166.86 145.19 C 163.84 143.35 161.54 140.16 160.83 136.70 Z" />
<path fill="#373636" opacity="1.00" d=" M 331.17 147.38 C 331.84 144.31 333.84 141.79 336.11 139.71 C 336.01 142.95 333.60 145.51 331.17 147.38 Z" />
<path fill="#373636" opacity="1.00" d=" M 169.45 148.74 C 172.07 148.99 172.93 151.77 174.36 153.54 C 183.50 166.57 192.14 179.95 200.77 193.32 C 202.16 195.68 204.36 197.87 204.11 200.83 C 199.77 197.40 197.44 192.15 194.44 187.63 C 187.16 175.35 178.77 163.80 170.75 152.01 C 170.18 150.98 169.74 149.89 169.45 148.74 Z" />
<path fill="#373636" opacity="1.00" d=" M 324.48 155.50 C 325.44 153.98 326.25 152.12 328.18 151.65 C 328.11 152.39 327.97 153.88 327.90 154.62 C 325.37 158.49 323.03 162.48 320.27 166.20 C 313.32 175.72 307.01 185.67 300.84 195.70 C 299.57 197.54 298.36 199.87 295.93 200.28 C 297.58 196.11 300.43 192.60 302.77 188.82 C 309.94 177.67 317.68 166.88 324.48 155.50 Z" />
<path fill="#373636" opacity="1.00" d=" M 31.39 170.77 C 32.03 170.86 33.32 171.04 33.96 171.13 C 70.71 189.12 106.97 208.08 143.62 226.26 C 152.30 230.70 161.31 234.53 169.77 239.39 C 169.45 242.38 166.01 239.06 164.38 238.72 C 153.41 234.01 142.94 228.24 132.31 222.83 C 112.81 213.55 93.51 203.82 74.67 193.25 C 61.63 186.46 48.41 179.99 35.02 173.91 C 33.46 173.32 32.21 172.21 31.39 170.77 Z" />
<path fill="#373636" opacity="1.00" d=" M 426.18 192.14 C 440.86 185.41 455.44 178.41 470.35 172.21 C 469.01 175.03 465.83 175.80 463.35 177.24 C 453.62 182.50 443.44 186.85 433.35 191.34 C 409.66 201.70 386.53 213.25 363.03 224.02 C 353.50 228.51 343.88 232.82 334.35 237.30 C 332.96 238.18 331.29 238.03 329.74 237.88 C 332.26 236.16 335.09 235.02 337.84 233.72 C 367.32 219.93 396.67 205.87 426.18 192.14 Z" />
<path fill="#373636" opacity="1.00" d=" M 117.84 178.46 C 121.00 178.89 123.26 181.25 125.43 183.37 C 122.29 183.59 119.44 180.97 117.84 178.46 Z" />
<path fill="#373636" opacity="1.00" d=" M 372.00 186.39 C 374.29 184.59 376.68 182.88 379.45 181.89 C 378.40 184.86 375.57 186.52 373.08 188.14 C 372.81 187.70 372.27 186.83 372.00 186.39 Z" />
<path fill="#373636" opacity="1.00" d=" M 134.99 191.25 C 133.84 190.34 130.27 188.49 132.80 187.09 C 137.43 189.68 141.54 193.06 145.79 196.20 C 154.87 203.23 164.44 209.57 173.80 216.21 C 176.14 218.08 179.07 219.59 180.17 222.58 C 179.50 222.36 178.16 221.92 177.50 221.69 C 163.02 211.98 149.78 200.52 134.99 191.25 Z" />
<path fill="#373636" opacity="1.00" d=" M 354.45 199.57 C 359.00 196.45 363.02 192.10 368.36 190.44 C 367.73 192.92 365.40 194.24 363.58 195.76 C 352.39 203.84 341.17 211.85 329.97 219.90 C 327.29 221.76 324.88 224.10 321.81 225.33 C 321.78 224.02 322.27 222.98 323.26 222.21 C 333.30 214.16 344.71 208.01 354.45 199.57 Z" />
<path fill="#373636" opacity="1.00" d=" M 92.59 235.36 C 95.73 236.49 100.99 235.32 102.31 239.08 C 99.04 238.78 94.21 238.57 92.59 235.36 Z" />
<path fill="#373636" opacity="1.00" d=" M 398.18 239.10 C 400.13 238.71 402.06 238.27 404.01 237.88 C 403.71 238.37 403.09 239.37 402.79 239.86 C 400.70 240.38 398.60 240.85 396.48 241.15 C 396.91 240.64 397.76 239.61 398.18 239.10 Z" />
<path fill="#373636" opacity="1.00" d=" M 106.75 240.64 C 107.24 240.29 108.21 239.59 108.70 239.24 C 117.56 240.94 126.18 243.72 134.94 245.88 C 144.27 247.67 153.35 250.55 162.69 252.32 C 162.97 252.74 163.54 253.59 163.82 254.02 C 158.63 254.31 153.69 252.45 148.72 251.25 C 134.90 247.05 120.52 244.94 106.75 240.64 Z" />
<path fill="#373636" opacity="1.00" d=" M 343.12 252.35 C 357.68 248.42 372.46 245.44 387.19 242.24 C 388.24 242.04 389.29 242.07 390.34 242.34 C 372.85 247.74 354.89 251.56 336.89 254.82 C 338.57 253.16 340.94 252.92 343.12 252.35 Z" />
<path fill="#373636" opacity="1.00" d=" M 7.76 269.97 C 9.36 267.58 12.53 268.65 14.92 268.16 C 32.60 267.85 50.28 268.07 67.97 268.00 C 85.37 267.74 102.73 269.84 120.13 268.76 C 133.75 267.37 147.47 268.16 161.13 268.08 C 161.04 269.44 160.37 270.07 159.11 270.00 C 142.09 270.01 125.06 269.98 108.04 270.01 C 105.33 270.03 102.67 270.61 99.96 270.58 C 72.30 270.54 44.63 270.57 16.97 270.56 C 13.90 270.51 10.75 270.90 7.76 269.97 Z" />
<path fill="#373636" opacity="1.00" d=" M 457.83 268.32 C 467.54 267.47 477.34 268.62 487.03 267.55 C 488.73 267.55 491.27 266.60 492.12 268.78 C 483.16 270.30 474.00 269.90 464.95 270.03 C 448.70 271.72 432.34 270.78 416.03 270.96 C 403.03 269.92 390.01 271.02 377.00 270.96 C 365.38 270.16 353.71 270.73 342.07 270.56 C 340.45 270.69 339.01 269.92 337.62 269.25 C 348.00 267.69 358.61 268.49 369.05 269.00 C 381.35 268.99 393.66 269.00 405.97 269.00 C 423.22 267.80 440.55 268.86 457.83 268.32 Z" />
<path fill="#373636" opacity="1.00" d=" M 53.97 302.57 C 59.68 300.29 65.92 297.91 72.15 299.41 C 76.58 300.30 81.02 302.71 83.11 306.88 C 84.99 311.52 83.66 317.56 79.25 320.29 C 73.58 324.47 66.39 325.18 59.59 325.71 C 57.36 333.46 55.05 341.20 53.04 349.01 C 50.58 349.08 47.61 347.12 48.94 344.37 C 53.71 329.72 58.39 314.97 64.86 300.96 C 61.66 301.37 58.95 303.22 55.92 304.17 C 55.24 303.67 54.59 303.13 53.97 302.57 M 59.51 323.79 C 66.92 324.33 75.46 321.22 79.03 314.31 C 80.14 312.76 78.38 309.65 81.34 309.69 C 78.70 310.95 79.96 307.72 79.28 306.52 C 77.81 302.15 72.80 300.85 68.71 300.39 C 64.51 307.72 62.85 316.11 59.51 323.79 Z" />
<path fill="#373636" opacity="1.00" d=" M 156.48 305.80 C 158.74 302.46 161.76 298.88 166.13 298.74 C 168.38 303.83 165.03 309.05 162.20 313.13 C 158.92 317.51 155.06 321.48 150.61 324.66 C 150.28 325.29 149.62 326.54 149.29 327.17 C 151.80 330.48 150.67 335.23 153.33 338.44 C 155.49 340.14 158.77 339.51 160.35 337.34 C 164.22 333.42 164.63 327.25 168.94 323.68 C 169.85 322.69 171.62 322.66 172.03 324.16 C 170.33 330.25 164.74 335.24 165.57 341.98 C 165.67 344.60 169.05 344.90 170.89 343.84 C 174.30 342.10 176.40 338.56 177.27 334.92 C 179.01 328.80 184.12 322.38 190.99 322.48 C 196.58 322.41 195.63 333.48 189.92 331.17 C 191.04 329.07 193.04 326.68 191.83 324.20 C 189.67 323.39 187.76 325.00 186.36 326.45 C 183.13 329.87 180.93 334.36 180.50 339.07 C 180.30 341.44 181.29 344.29 183.87 344.87 C 188.43 345.41 192.48 342.34 195.21 338.99 C 196.61 337.32 197.18 335.01 199.02 333.71 C 196.97 340.07 191.68 345.71 184.98 346.99 C 180.71 347.89 176.75 344.27 176.70 340.01 C 173.84 343.33 169.84 346.74 165.13 345.94 C 161.64 344.90 161.32 340.88 161.90 337.89 C 159.08 340.85 154.69 342.20 151.29 339.28 C 151.13 345.59 149.64 351.99 146.36 357.43 C 145.16 359.19 143.42 361.40 141.01 360.99 C 139.86 360.36 138.67 359.36 138.52 357.98 C 137.80 352.43 139.48 346.95 140.93 341.66 C 138.03 344.12 134.36 346.89 130.31 345.83 C 127.50 344.78 127.00 341.61 127.20 338.99 C 123.70 343.26 118.79 347.68 112.85 346.97 C 109.06 346.42 107.20 342.62 107.07 339.13 C 103.97 342.99 99.27 346.95 93.97 345.06 C 93.21 343.66 92.61 342.16 92.25 340.61 C 89.72 343.32 87.08 347.13 82.92 347.05 C 79.90 346.98 78.20 343.63 78.73 340.92 C 79.70 334.72 83.81 329.40 88.70 325.68 C 91.91 323.23 97.05 321.51 100.39 324.63 C 102.46 326.37 101.88 330.18 98.88 330.43 C 98.77 328.16 99.34 324.64 96.04 324.52 C 91.81 324.77 89.01 328.43 86.74 331.59 C 84.64 335.11 82.27 339.28 83.26 343.51 C 84.59 344.72 86.69 343.83 87.92 342.84 C 92.05 339.55 94.73 334.87 98.05 330.82 C 98.85 331.32 99.65 331.82 100.46 332.33 C 99.27 334.90 97.69 337.29 96.74 339.97 C 95.94 341.92 97.43 344.98 99.84 343.85 C 103.74 341.92 106.76 338.27 108.00 334.10 C 109.65 329.27 113.08 324.73 117.99 322.95 C 120.18 322.14 123.57 322.02 124.67 324.54 C 126.45 327.49 124.36 333.04 120.29 331.11 C 121.73 329.11 123.53 326.55 122.26 324.04 C 119.13 323.49 116.95 326.21 115.24 328.39 C 112.36 332.38 110.06 337.62 111.59 342.57 C 113.87 346.77 119.46 344.57 122.38 342.28 C 128.33 338.33 128.73 330.50 132.91 325.22 C 133.94 324.10 135.58 321.96 137.25 323.36 C 137.87 326.00 135.58 328.19 134.60 330.50 C 132.19 334.39 130.50 338.85 131.21 343.50 C 136.72 346.56 141.23 340.25 142.71 335.62 C 146.34 325.28 150.49 315.02 156.48 305.80 M 158.66 307.47 C 155.78 312.00 153.47 316.90 151.66 321.95 C 155.22 319.05 158.05 315.41 160.73 311.72 C 162.55 309.03 164.48 306.19 164.71 302.84 C 161.83 302.85 160.15 305.37 158.66 307.47 M 147.58 332.30 C 145.30 339.46 142.76 346.67 142.17 354.21 C 142.26 355.64 141.64 358.17 143.90 358.04 C 147.32 353.77 148.53 348.20 149.48 342.93 C 150.32 339.24 149.14 335.61 147.58 332.30 Z" />
<path fill="#373636" opacity="1.00" d=" M 222.80 310.66 C 226.86 305.41 232.02 300.19 238.85 299.02 C 240.77 298.56 242.57 299.30 244.12 300.37 C 241.38 300.83 238.51 301.30 236.26 303.08 C 228.37 308.92 223.50 318.07 221.01 327.40 C 219.91 332.97 219.25 339.36 222.43 344.39 C 224.99 348.40 230.82 347.99 234.42 345.70 C 238.92 342.67 241.80 337.81 244.02 332.98 C 246.81 326.35 248.46 319.19 248.48 311.98 C 248.38 308.93 248.21 305.55 245.96 303.22 C 240.58 305.85 238.87 312.22 237.05 317.45 C 235.74 316.76 234.00 315.90 234.27 314.10 C 235.09 309.06 239.10 305.03 243.34 302.51 C 245.52 301.08 248.36 302.45 249.22 304.73 C 251.34 310.21 250.91 316.27 250.18 321.98 C 248.59 331.78 243.48 341.65 234.61 346.68 C 230.88 348.82 226.07 350.07 222.03 348.03 C 217.60 346.13 215.45 341.29 214.83 336.77 C 213.80 327.42 217.52 318.21 222.80 310.66 Z" />
<path fill="#373636" opacity="1.00" d=" M 283.21 323.99 C 286.03 318.19 288.20 311.65 293.11 307.24 L 294.21 306.84 L 295.34 307.75 C 293.95 313.80 289.30 318.60 287.09 324.40 C 290.99 324.54 294.89 324.22 298.79 324.12 C 295.28 326.77 290.30 325.61 286.17 326.12 C 284.30 331.12 282.46 336.39 283.05 341.82 C 283.21 343.31 284.29 344.91 285.94 344.91 C 289.30 345.10 292.20 342.72 294.33 340.37 C 295.99 338.53 295.67 335.38 298.05 334.15 C 301.31 332.27 303.25 328.91 305.10 325.76 C 306.41 323.28 305.40 319.07 309.12 318.59 C 307.98 326.47 313.21 333.46 312.19 341.34 C 319.55 339.67 318.15 328.65 325.98 328.00 C 323.93 332.61 319.96 338.00 322.76 343.11 C 326.10 343.24 328.45 340.70 330.66 338.58 C 326.92 334.85 325.53 328.16 329.03 323.87 C 331.04 321.15 336.12 321.16 337.17 324.73 C 338.00 329.44 335.66 333.97 333.13 337.76 C 335.59 338.86 338.59 338.34 340.53 336.47 C 342.87 333.19 343.04 328.76 345.88 325.77 C 346.55 325.80 347.90 325.86 348.57 325.89 C 347.01 331.77 342.51 337.93 345.77 344.07 C 347.35 343.85 349.01 343.38 349.99 342.01 C 353.46 337.75 355.47 332.57 358.08 327.79 C 358.86 327.88 360.43 328.04 361.21 328.13 C 360.10 333.19 356.54 337.70 357.12 343.09 C 358.42 345.85 361.83 343.69 363.49 342.37 C 368.21 338.04 370.99 331.93 373.08 325.97 C 372.60 323.14 372.97 319.69 376.11 318.61 C 376.30 320.27 376.08 321.87 375.44 323.42 C 377.34 325.53 380.22 326.78 381.53 329.37 C 382.98 333.88 379.48 337.82 378.69 342.08 C 378.78 344.02 381.04 344.30 382.45 343.61 C 386.05 341.94 389.47 339.00 390.29 334.94 C 391.98 328.81 397.09 322.44 403.93 322.47 C 409.61 322.33 408.61 333.53 402.89 331.16 C 404.07 329.09 406.00 326.71 404.85 324.21 C 401.62 323.22 399.30 326.45 397.53 328.64 C 394.97 332.46 392.65 337.27 393.87 341.95 C 394.47 344.67 397.70 345.45 400.06 344.70 C 404.17 343.45 408.00 340.46 409.51 336.35 C 411.73 330.60 415.70 325.07 421.56 322.65 C 423.72 321.74 426.93 321.33 428.36 323.63 C 429.57 326.83 427.91 330.38 425.49 332.54 C 422.15 335.84 417.53 337.20 413.08 338.24 C 413.28 340.49 412.83 343.46 415.15 344.80 C 418.19 346.16 421.75 345.10 424.35 343.25 C 430.15 339.20 433.41 332.45 435.55 325.91 C 435.36 323.40 435.18 318.95 438.83 319.08 C 438.61 320.69 438.39 322.29 438.16 323.90 C 440.34 325.69 443.15 327.18 444.26 329.91 C 445.22 334.29 441.91 337.90 441.23 342.04 C 441.49 344.89 445.08 343.94 446.62 342.76 C 450.25 341.03 451.70 336.98 454.84 334.74 C 452.56 339.75 448.61 344.57 443.06 345.94 C 440.79 346.50 437.60 345.58 437.19 342.97 C 436.68 338.31 440.54 334.55 440.55 329.96 C 440.43 327.88 438.52 326.79 437.00 325.76 C 434.55 331.24 432.70 337.20 428.26 341.48 C 424.55 345.34 418.76 348.37 413.38 346.46 C 410.55 345.56 409.35 342.60 408.98 339.91 C 405.52 343.85 400.67 347.77 395.08 346.94 C 391.60 346.18 389.84 342.80 389.53 339.51 C 386.89 342.69 383.42 346.03 379.01 346.05 C 377.35 346.22 375.90 345.13 374.90 343.94 C 373.40 338.82 378.51 334.61 377.87 329.52 C 377.74 327.70 375.78 326.89 374.72 325.69 C 371.63 331.76 369.74 338.77 364.22 343.22 C 361.74 345.23 357.80 347.36 354.86 345.12 C 352.96 343.89 353.67 341.27 353.41 339.46 C 351.21 342.26 348.69 346.97 344.39 345.86 C 341.21 344.58 341.07 340.84 340.92 337.94 C 338.30 339.65 335.18 340.65 332.09 339.59 C 329.19 342.51 325.64 346.34 321.08 345.29 C 318.15 344.77 317.63 341.27 317.64 338.84 C 315.47 340.75 312.21 341.08 310.51 343.54 C 307.96 347.33 302.10 348.28 298.51 345.45 C 297.03 344.30 296.55 342.40 295.81 340.78 C 292.31 344.20 287.75 348.27 282.45 346.72 C 279.08 345.75 279.11 341.85 279.14 339.03 C 276.23 342.66 272.14 346.90 267.01 345.87 C 264.41 344.92 264.24 341.93 264.40 339.59 C 262.47 341.92 260.83 344.85 257.83 345.96 C 254.35 346.84 251.88 343.13 252.07 340.02 C 252.26 334.94 253.82 329.74 256.90 325.66 C 257.62 325.91 259.06 326.42 259.78 326.68 C 257.41 331.47 254.68 336.85 255.97 342.33 C 256.66 344.67 259.39 344.02 260.56 342.47 C 264.30 338.08 266.59 332.68 269.07 327.52 C 269.85 327.69 271.41 328.04 272.19 328.21 C 271.06 333.23 267.55 337.72 268.12 343.06 C 269.57 346.00 273.24 343.47 274.93 341.99 C 279.93 338.04 280.55 331.42 282.61 325.84 C 281.69 325.32 280.78 324.79 279.88 324.26 C 280.71 324.19 282.38 324.06 283.21 323.99 M 331.06 335.95 C 332.69 336.29 333.13 334.53 333.71 333.44 C 335.18 330.29 336.45 326.29 334.09 323.22 C 328.68 324.79 328.82 331.84 331.06 335.95 M 413.64 336.68 C 419.16 334.37 426.53 330.72 426.04 323.64 C 419.21 323.64 415.56 331.07 413.64 336.68 M 300.03 334.89 C 301.94 337.78 304.50 340.51 308.07 341.13 C 308.61 336.26 307.39 331.47 306.22 326.80 C 304.12 329.47 302.24 332.31 300.03 334.89 M 299.03 336.28 C 297.72 339.61 299.03 344.70 303.00 345.35 C 305.19 345.96 306.78 344.06 307.72 342.37 C 304.10 341.47 301.67 338.66 299.03 336.28 Z" />
<path fill="#373636" opacity="1.00" d=" M 136.35 315.00 C 137.79 312.99 141.43 310.40 143.37 313.00 C 144.05 316.74 137.88 318.73 136.35 315.00 Z" />
<path fill="#373636" opacity="1.00" d=" M 173.50 312.62 C 174.83 311.83 177.13 311.31 177.90 313.08 C 178.41 316.13 173.90 318.40 171.73 316.18 C 170.74 314.68 172.15 313.19 173.50 312.62 Z" />
</g>
</svg>
